Genre:Comedy/Drama/Romance
Language:English
IMDb:http://www.imdb.com/title/tt1261945/
Source Video:Relizlab.Thanks
Source Audio:PrisM.Thanks
Encoder: Tony2
...............................................
General
Complete name : Sex And The City V2 New Audio CAM MP4 AAC FEEL-FREE
Format : MPEG-4
Format profile : Base Media
Codec ID : isom
File size : 1.27 GiB
Duration : 2h 16mn
Overall bit rate : 1 333 Kbps
................................................
Video
ID : 1
Format : MPEG-4 Visual
Format profile : Simple@L1
Format settings, BVOP : No
Format settings, QPel : No
Format settings, GMC : No warppoints
Format settings, Matrix : Default (H.263)
Codec ID : 20
Duration : 2h 16mn
Bit rate mode : Variable
Bit rate : 1 200 Kbps
Width : 704 pixels
Height : 304 pixels
Display aspect ratio : 2.35:1
Frame rate mode : Constant
Frame rate : 25.000 fps
Resolution : 24 bits
Colorimetry : 4:2:0
Scan type : Progressive
Bits/(Pixel*Frame) : 0.224
Stream size : 1.14 GiB (90%)
Writing library : Lavc51.40.4
................................................
Audio
ID : 2
Format : AAC
Format/Info : Advanced Audio Codec
Format version : Version 4
Format profile : LC
Format settings, SBR : No
Codec ID : 40
Duration : 2h 16mn
Bit rate mode : Variable
Bit rate : 128 Kbps
Channel(s) : 2 channels
Channel positions : L R
Sampling rate : 48.0 KHz
Resolution : 16 bits
Stream size : 125 MiB (10%)
................................................
Plot: 
While wrestling with the pressures of life, love, and work in Manhattan, Carrie, Miranda,
and Charlotte join Samantha for a trip to Morocco, where Samantha's ex is filming a new movie
...................................................
Screenshots: 
http://postimg.com/image/17000/16483.jpg 
http://postimg.com/image/17000/16484.jpg